<?xml version="1.0" encoding="UTF-8" standalone="no"?>
<!DOCTYPE svg PUBLIC "-//W3C//DTD SVG 1.1//EN" "http://www.w3.org/Graphics/SVG/1.1/DTD/svg11.dtd">
<!-- 由 Microsoft Visio, SVG Export 生成 ASTENS-example.svg 页-1 -->
<svg xmlns="http://www.w3.org/2000/svg" xmlns:xlink="http://www.w3.org/1999/xlink" xmlns:ev="http://www.w3.org/2001/xml-events"
		xmlns:v="http://schemas.microsoft.com/visio/2003/SVGExtensions/" width="7.82242in" height="2.39763in" style="background-color: #ffffff"
		viewBox="0 0 563.215 172.629" xml:space="preserve" color-interpolation-filters="sRGB" class="st12">
	<v:documentProperties v:langID="2052" v:metric="true" v:viewMarkup="false"/>

	<style type="text/css">
	<![CDATA[
		.st1 {fill:#ffffff;stroke:#ffffff;stroke-linecap:round;stroke-linejoin:round;stroke-width:0.75}
		.st2 {fill:#000000;font-family:Times New Roman;font-size:1.16666em}
		.st3 {font-size:1em}
		.st4 {fill:#ffffff;stroke:#000000;stroke-linecap:round;stroke-linejoin:round;stroke-width:0.24}
		.st5 {stroke:#000000;stroke-linecap:round;stroke-linejoin:round;stroke-width:0.75}
		.st6 {fill:none;stroke:none;stroke-linecap:round;stroke-linejoin:round;stroke-width:0.75}
		.st7 {marker-end:url(#mrkr5-99);stroke:#ff0000;stroke-dasharray:7,5;stroke-linecap:round;stroke-linejoin:round;stroke-width:1}
		.st8 {fill:#ff0000;fill-opacity:1;stroke:#ff0000;stroke-opacity:1;stroke-width:0.35714285714286}
		.st9 {marker-end:url(#mrkr5-145);stroke:#ff0000;stroke-dasharray:7,5;stroke-linecap:round;stroke-linejoin:round;stroke-width:1}
		.st10 {fill:none;stroke:#000000;stroke-linecap:round;stroke-linejoin:round;stroke-width:0.75}
		.st11 {fill:#000000;font-family:宋体;font-size:1.16666em}
		.st12 {fill:none;fill-rule:evenodd;font-size:12px;overflow:visible;stroke-linecap:square;stroke-miterlimit:3}
	]]>
	</style>

	<defs id="Markers">
		<g id="lend5">
			<path d="M 2 1 L 0 0 L 1.98117 -0.993387 C 1.67173 -0.364515 1.67301 0.372641 1.98465 1.00043 " style="stroke:none"/>
		</g>
		<marker id="mrkr5-99" class="st8" v:arrowType="5" v:arrowSize="1" v:setback="4.54" refX="-4.54" orient="auto"
				markerUnits="strokeWidth" overflow="visible">
			<use xlink:href="#lend5" transform="scale(-2.8,-2.8) "/>
		</marker>
		<marker id="mrkr5-145" class="st8" v:arrowType="5" v:arrowSize="1" v:setback="4.9" refX="-4.9" orient="auto"
				markerUnits="strokeWidth" overflow="visible">
			<use xlink:href="#lend5" transform="scale(-2.8,-2.8) "/>
		</marker>
	</defs>
	<g v:mID="0" v:index="1" v:groupContext="foregroundPage">
		<title>页-1</title>
		<v:pageProperties v:drawingScale="0.0393701" v:pageScale="0.0393701" v:drawingUnits="24" v:shadowOffsetX="8.50394"
				v:shadowOffsetY="-8.50394"/>
		<v:layer v:name="连接线" v:index="0"/>
		<g id="group1085-1" transform="translate(0.375,-0.375)" v:mID="1085" v:groupContext="group">
			<title>工作表.1085</title>
			<g id="shape1086-2" v:mID="1086" v:groupContext="shape" transform="translate(444.685,-1.80064)">
				<title>工作表.1086</title>
				<desc>L0A (+000,001) L1B (+001,002) L2C (+001,003) L1D (-001,004) L...</desc>
				<v:textBlock v:margins="rect(4,4,4,4)" v:tabSpace="42.5197"/>
				<v:textRect cx="58.8898" cy="87.59" width="117.78" height="170.079"/>
				<rect x="0" y="2.55064" width="117.78" height="170.079" class="st1"/>
				<text x="0.286em 0.897em 1.397em" y="16.19" class="st2" v:langID="2052"><v:paragraph v:horizAlign="3"/><v:tabList/>L0A<v:tabChar/><tspan
							x="3.323em 3.656em 4.22em 4.72em 5.22em 5.72em 5.97em 6.47em 6.97em 7.47em" dy="0em" class="st3">(+000,001)<v:newlineChar/></tspan><tspan
							x="0.286em 0.897em 1.397em" dy="1.2em" class="st3">L1B<v:tabChar/></tspan><tspan x="3.323em 3.656em 4.22em
								 4.72em 5.22em 5.72em 5.97em 6.47em 6.97em 7.47em" dy="0em" class="st3">(+001,002)<v:newlineChar/></tspan><tspan
							x="0.286em 0.897em 1.397em" dy="1.2em" class="st3">L2C<v:tabChar/></tspan><tspan x="3.323em 3.656em 4.22em
								 4.72em 5.22em 5.72em 5.97em 6.47em 6.97em 7.47em" dy="0em" class="st3">(+001,003)<v:newlineChar/></tspan><tspan
							x="0.286em 0.897em 1.397em" dy="1.2em" class="st3">L1D<v:tabChar/></tspan><tspan x="3.323em" dy="0em"
							class="st3">(</tspan><tspan x="3.656em" dy="0em" class="st3">-</tspan><tspan x="3.989em 4.489em 4.989em
								 5.489em 5.739em 6.239em 6.739em 7.239em" dy="0em" class="st3">001,004)<v:newlineChar/></tspan><tspan
							x="0.286em 0.897em 1.397em" dy="1.2em" class="st3">L2E<v:tabChar/></tspan><tspan x="3.323em 3.656em 4.22em
								 4.72em 5.22em 5.72em 5.97em 6.47em 6.97em 7.47em" dy="0em" class="st3">(+001,005)<v:newlineChar/></tspan><tspan
							x="0.286em 0.897em 1.397em" dy="1.2em" class="st3">L2F<v:tabChar/></tspan><tspan x="3.323em 3.656em 4.22em
								 4.72em 5.22em 5.72em 5.97em 6.47em 6.97em 7.47em" dy="0em" class="st3">(+000,006)<v:newlineChar/></tspan><tspan
							x="0.286em 0.897em 1.397em" dy="1.2em" class="st3">L2G<v:tabChar/></tspan><tspan x="3.323em 3.656em 4.22em
								 4.72em 5.22em 5.72em 5.97em 6.47em 6.97em 7.47em" dy="0em" class="st3">(+000,007)<v:newlineChar/></tspan><tspan
							x="0.286em 0.897em 1.397em" dy="1.2em" class="st3">L1H<v:tabChar/></tspan><tspan x="3.323em" dy="0em"
							class="st3">(</tspan><tspan x="3.656em" dy="0em" class="st3">-</tspan><tspan x="3.989em 4.489em 4.989em
								 5.489em 5.739em 6.239em 6.739em 7.239em" dy="0em" class="st3">001,008)<v:newlineChar/></tspan><tspan
							x="0.286em 0.897em 1.397em" dy="1.2em" class="st3">L2I<v:tabChar/></tspan><tspan x="3.323em 3.656em 4.22em
								 4.72em 5.22em 5.72em 5.97em 6.47em 6.97em 7.47em" dy="0em" class="st3">(+001,009)<v:newlineChar/></tspan><tspan
							x="0.286em 0.897em 1.397em" dy="1.2em" class="st3">L2J<v:tabChar/></tspan><tspan x="3.323em 3.656em 4.22em
								 4.72em 5.22em 5.72em 5.97em 6.47em 6.97em 7.47em" dy="0em" class="st3">(+000,010)</tspan></text>			</g>
			<g id="shape1087-28" v:mID="1087" v:groupContext="shape" transform="translate(191.551,-148.036)">
				<title>椭圆形.1015</title>
				<desc>A</desc>
				<v:userDefs>
					<v:ud v:nameU="visVersion" v:val="VT0(15):26"/>
				</v:userDefs>
				<v:textBlock v:margins="rect(4,4,4,4)" v:tabSpace="42.5197"/>
				<v:textRect cx="25.2992" cy="160.799" width="44.28" height="20.7025"/>
				<path d="M0 160.8 A25.2992 11.83 0 0 1 50.6 160.8 A25.2992 11.83 0 1 1 -0 160.8 Z" class="st4"/>
				<text x="20.24" y="165" class="st2" v:langID="2052"><v:paragraph v:horizAlign="1"/><v:tabList/>A</text>			</g>
			<g id="shape1088-31" v:mID="1088" v:groupContext="shape" transform="translate(57.8268,-91.9583)">
				<title>椭圆形.1016</title>
				<desc>B</desc>
				<v:userDefs>
					<v:ud v:nameU="visVersion" v:val="VT0(15):26"/>
				</v:userDefs>
				<v:textBlock v:margins="rect(4,4,4,4)" v:tabSpace="42.5197"/>
				<v:textRect cx="25.2992" cy="160.799" width="44.28" height="20.7025"/>
				<path d="M0 160.8 A25.2992 11.83 0 0 1 50.6 160.8 A25.2992 11.83 0 1 1 -0 160.8 Z" class="st4"/>
				<text x="20.63" y="165" class="st2" v:langID="2052"><v:paragraph v:horizAlign="1"/><v:tabList/>B</text>			</g>
			<g id="shape1089-34" v:mID="1089" v:groupContext="shape" transform="translate(182.154,-91.9583)">
				<title>椭圆形.1017</title>
				<desc>D</desc>
				<v:userDefs>
					<v:ud v:nameU="visVersion" v:val="VT0(15):26"/>
				</v:userDefs>
				<v:textBlock v:margins="rect(4,4,4,4)" v:tabSpace="42.5197"/>
				<v:textRect cx="25.2992" cy="160.799" width="44.28" height="20.7025"/>
				<path d="M0 160.8 A25.2992 11.83 0 0 1 50.6 160.8 A25.2992 11.83 0 1 1 -0 160.8 Z" class="st4"/>
				<text x="20.24" y="165" class="st2" v:langID="2052"><v:paragraph v:horizAlign="1"/><v:tabList/>D</text>			</g>
			<g id="shape1090-37" v:mID="1090" v:groupContext="shape" transform="translate(350.575,-91.9583)">
				<title>椭圆形.1018</title>
				<desc>H</desc>
				<v:userDefs>
					<v:ud v:nameU="visVersion" v:val="VT0(15):26"/>
				</v:userDefs>
				<v:textBlock v:margins="rect(4,4,4,4)" v:tabSpace="42.5197"/>
				<v:textRect cx="25.2992" cy="160.799" width="44.28" height="20.7025"/>
				<path d="M0 160.8 A25.2992 11.83 0 0 1 50.6 160.8 A25.2992 11.83 0 1 1 -0 160.8 Z" class="st4"/>
				<text x="20.24" y="165" class="st2" v:langID="2052"><v:paragraph v:horizAlign="1"/><v:tabList/>H</text>			</g>
			<g id="shape1091-40" v:mID="1091" v:groupContext="shape" transform="translate(43.3701,-37.4174)">
				<title>椭圆形.1019</title>
				<desc>C</desc>
				<v:userDefs>
					<v:ud v:nameU="visVersion" v:val="VT0(15):26"/>
				</v:userDefs>
				<v:textBlock v:margins="rect(4,4,4,4)" v:tabSpace="42.5197"/>
				<v:textRect cx="25.2992" cy="160.799" width="44.28" height="20.7025"/>
				<path d="M0 160.8 A25.2992 11.83 0 0 1 50.6 160.8 A25.2992 11.83 0 1 1 -0 160.8 Z" class="st4"/>
				<text x="20.63" y="165" class="st2" v:langID="2052"><v:paragraph v:horizAlign="1"/><v:tabList/>C</text>			</g>
			<g id="shape1092-43" v:mID="1092" v:groupContext="shape" transform="translate(112.762,-37.4174)">
				<title>椭圆形.1020</title>
				<desc>E</desc>
				<v:userDefs>
					<v:ud v:nameU="visVersion" v:val="VT0(15):26"/>
				</v:userDefs>
				<v:textBlock v:margins="rect(4,4,4,4)" v:tabSpace="42.5197"/>
				<v:textRect cx="25.2992" cy="160.799" width="44.28" height="20.7025"/>
				<path d="M0 160.8 A25.2992 11.83 0 0 1 50.6 160.8 A25.2992 11.83 0 1 1 -0 160.8 Z" class="st4"/>
				<text x="21.02" y="165" class="st2" v:langID="2052"><v:paragraph v:horizAlign="1"/><v:tabList/>E</text>			</g>
			<g id="shape1093-46" v:mID="1093" v:groupContext="shape" transform="translate(182.154,-37.4174)">
				<title>椭圆形.1021</title>
				<desc>F</desc>
				<v:userDefs>
					<v:ud v:nameU="visVersion" v:val="VT0(15):26"/>
				</v:userDefs>
				<v:textBlock v:margins="rect(4,4,4,4)" v:tabSpace="42.5197"/>
				<v:textRect cx="25.2992" cy="160.799" width="44.28" height="20.7025"/>
				<path d="M0 160.8 A25.2992 11.83 0 0 1 50.6 160.8 A25.2992 11.83 0 1 1 -0 160.8 Z" class="st4"/>
				<text x="21.41" y="165" class="st2" v:langID="2052"><v:paragraph v:horizAlign="1"/><v:tabList/>F</text>			</g>
			<g id="shape1094-49" v:mID="1094" v:groupContext="shape" transform="translate(320.939,-37.4174)">
				<title>椭圆形.1022</title>
				<desc>I</desc>
				<v:userDefs>
					<v:ud v:nameU="visVersion" v:val="VT0(15):26"/>
				</v:userDefs>
				<v:textBlock v:margins="rect(4,4,4,4)" v:tabSpace="42.5197"/>
				<v:textRect cx="25.2992" cy="160.799" width="44.28" height="20.7025"/>
				<path d="M0 160.8 A25.2992 11.83 0 0 1 50.6 160.8 A25.2992 11.83 0 1 1 -0 160.8 Z" class="st4"/>
				<text x="22.97" y="165" class="st2" v:langID="2052"><v:paragraph v:horizAlign="1"/><v:tabList/>I</text>			</g>
			<g id="shape1095-52" v:mID="1095" v:groupContext="shape" transform="translate(390.331,-37.4174)">
				<title>椭圆形.1023</title>
				<desc>J</desc>
				<v:userDefs>
					<v:ud v:nameU="visVersion" v:val="VT0(15):26"/>
				</v:userDefs>
				<v:textBlock v:margins="rect(4,4,4,4)" v:tabSpace="42.5197"/>
				<v:textRect cx="25.2992" cy="160.799" width="44.28" height="20.7025"/>
				<path d="M0 160.8 A25.2992 11.83 0 0 1 50.6 160.8 A25.2992 11.83 0 1 1 -0 160.8 Z" class="st4"/>
				<text x="22.58" y="165" class="st2" v:langID="2052"><v:paragraph v:horizAlign="1"/><v:tabList/>J</text>			</g>
			<g id="shape1096-55" v:mID="1096" v:groupContext="shape" transform="translate(251.546,-37.4174)">
				<title>椭圆形.1024</title>
				<desc>G</desc>
				<v:userDefs>
					<v:ud v:nameU="visVersion" v:val="VT0(15):26"/>
				</v:userDefs>
				<v:textBlock v:margins="rect(4,4,4,4)" v:tabSpace="42.5197"/>
				<v:textRect cx="25.2992" cy="160.799" width="44.28" height="20.7025"/>
				<path d="M0 160.8 A25.2992 11.83 0 0 1 50.6 160.8 A25.2992 11.83 0 1 1 -0 160.8 Z" class="st4"/>
				<text x="20.24" y="165" class="st2" v:langID="2052"><v:paragraph v:horizAlign="1"/><v:tabList/>G</text>			</g>
			<g id="shape1097-58" v:mID="1097" v:groupContext="shape" v:layerMember="0" transform="translate(81.0068,-92.1038)">
				<title>动态连接线.1025</title>
				<path d="M-1.84 172.63 L-12.34 203.66" class="st5"/>
			</g>
			<g id="shape1098-61" v:mID="1098" v:groupContext="shape" v:layerMember="0" transform="translate(83.126,-115.618)">
				<title>动态连接线.1026</title>
				<path d="M0 172.63 L113.07 135.22" class="st5"/>
			</g>
			<g id="shape1099-64" v:mID="1099" v:groupContext="shape" v:layerMember="0" transform="translate(217.989,-148.094)">
				<title>动态连接线.1027</title>
				<path d="M-3.64 172.63 L-10.54 205.1" class="st5"/>
			</g>
			<g id="shape1100-67" v:mID="1100" v:groupContext="shape" v:layerMember="0" transform="translate(237.05,-152.743)">
				<title>动态连接线.1028</title>
				<path d="M0 172.63 L118.63 214.46" class="st5"/>
			</g>
			<g id="shape1101-70" v:mID="1101" v:groupContext="shape" v:layerMember="0" transform="translate(192.149,-94.3684)">
				<title>动态连接线.1029</title>
				<path d="M0 172.63 L-54.09 205.92" class="st5"/>
			</g>
			<g id="shape1102-73" v:mID="1102" v:groupContext="shape" v:layerMember="0" transform="translate(200.367,-91.9583)">
				<title>动态连接线.1030</title>
				<path d="M7.09 172.63 L7.09 203.51" class="st5"/>
			</g>
			<g id="shape1103-76" v:mID="1103" v:groupContext="shape" v:layerMember="0" transform="translate(220.389,-93.6215)">
				<title>动态连接线.1031</title>
				<path d="M0 172.63 L43.52 206.84" class="st5"/>
			</g>
			<g id="shape1104-79" v:mID="1104" v:groupContext="shape" v:layerMember="0" transform="translate(368.066,-92.5358)">
				<title>动态连接线.1032</title>
				<path d="M0 172.63 L-21.83 204.09" class="st5"/>
			</g>
			<g id="shape1105-82" v:mID="1105" v:groupContext="shape" v:layerMember="0" transform="translate(385.971,-92.9413)">
				<title>动态连接线.1033</title>
				<path d="M0 172.63 L29.66 204.49" class="st5"/>
			</g>
			<g id="shape1106-85" v:mID="1106" v:groupContext="shape" transform="translate(-7.99361E-15,-149.459)">
				<title>工作表.1106</title>
				<desc>L0</desc>
				<v:textBlock v:margins="rect(4,4,4,4)" v:tabSpace="42.5197"/>
				<v:textRect cx="14.4567" cy="162.223" width="28.92" height="20.8126"/>
				<rect x="0" y="151.817" width="28.9134" height="20.8126" class="st6"/>
				<text x="6.68" y="166.42" class="st2" v:langID="2052"><v:paragraph v:horizAlign="1"/><v:tabList/>L0</text>			</g>
			<g id="shape1107-88" v:mID="1107" v:groupContext="shape" transform="translate(-7.99361E-15,-93.382)">
				<title>工作表.1107</title>
				<desc>L1</desc>
				<v:textBlock v:margins="rect(4,4,4,4)" v:tabSpace="42.5197"/>
				<v:textRect cx="14.4567" cy="162.223" width="28.92" height="20.8126"/>
				<rect x="0" y="151.817" width="28.9134" height="20.8126" class="st6"/>
				<text x="6.68" y="166.42" class="st2" v:langID="2052"><v:paragraph v:horizAlign="1"/><v:tabList/>L1</text>			</g>
			<g id="shape1108-91" v:mID="1108" v:groupContext="shape" transform="translate(-7.99361E-15,-38.8411)">
				<title>工作表.1108</title>
				<desc>L2</desc>
				<v:textBlock v:margins="rect(4,4,4,4)" v:tabSpace="42.5197"/>
				<v:textRect cx="14.4567" cy="162.223" width="28.92" height="20.8126"/>
				<rect x="0" y="151.817" width="28.9134" height="20.8126" class="st6"/>
				<text x="6.68" y="166.42" class="st2" v:langID="2052"><v:paragraph v:horizAlign="1"/><v:tabList/>L2</text>			</g>
			<g id="shape1109-94" v:mID="1109" v:groupContext="shape" v:layerMember="0" transform="translate(188.575,-163.192)">
				<title>动态连接线.1037</title>
				<path d="M0 172.63 C-18.14 172.63 -29.54 174.7 -46.51 179.44 C-63.36 184.16 -85.69 191.52 -101.26 211.21 L-101.48
							 211.5" class="st7"/>
			</g>
			<g id="shape1110-100" v:mID="1110" v:groupContext="shape" v:layerMember="0" transform="translate(61.0157,-93.7429)">
				<title>动态连接线.1038</title>
				<path d="M-3.54 172.63 C-10.11 177.5 -12.72 189.68 -11.53 199.84 L-11.46 200.2" class="st7"/>
			</g>
			<g id="shape1111-105" v:mID="1111" v:groupContext="shape" v:layerMember="0" transform="translate(85.8189,-62.5618)">
				<title>动态连接线.1039</title>
				<path d="M0 172.63 C11.34 163.28 29.34 151.22 47.2 143.24 C62.45 136.42 77.58 132.57 89.29 130.29 L89.65 130.22"
						class="st7"/>
			</g>
			<g id="shape1112-110" v:mID="1112" v:groupContext="shape" v:layerMember="0" transform="translate(180.213,-99.4122)">
				<title>动态连接线.1040</title>
				<path d="M0 172.63 C-7.09 174.05 -18.09 179.61 -26.8 185.31 C-35.27 190.84 -41.58 196.49 -47.76 205.39 L-47.96 205.69"
						class="st7"/>
			</g>
			<g id="shape1113-115" v:mID="1113" v:groupContext="shape" v:layerMember="0" transform="translate(163.772,-44.4201)">
				<title>动态连接线.1041</title>
				<path d="M0 165.83 C0 165.68 3.89 165.17 6.95 165.01 C9.33 164.9 11.2 165 13.24 165.11 L13.6 165.12" class="st7"/>
			</g>
			<g id="shape1114-120" v:mID="1114" v:groupContext="shape" v:layerMember="0" transform="translate(233.22,-43.8531)">
				<title>动态连接线.1042</title>
				<path d="M0 165.83 C0 165.68 3.89 165.17 6.95 165.01 C9.33 164.9 11.2 165 13.24 165.11 L13.6 165.12" class="st7"/>
			</g>
			<g id="shape1115-125" v:mID="1115" v:groupContext="shape" v:layerMember="0" transform="translate(284.528,-62.8453)">
				<title>动态连接线.1043</title>
				<path d="M0 172.63 C9.64 160.16 18.54 152.39 27.72 146.02 C36.04 140.26 44.6 135.65 58.64 133.44 L59 133.4"
						class="st7"/>
			</g>
			<g id="shape1116-130" v:mID="1116" v:groupContext="shape" v:layerMember="0" transform="translate(350.433,-94.5933)">
				<title>动态连接线.1044</title>
				<path d="M-0.43 172.63 C-6.66 177.73 -7.26 178.88 -8.9 180.74 C-10.87 183.01 -14.37 186.33 -14.02 199.77 L-14 200.13"
						class="st7"/>
			</g>
			<g id="shape1117-135" v:mID="1117" v:groupContext="shape" v:layerMember="0" transform="translate(372.402,-44.4201)">
				<title>动态连接线.1045</title>
				<path d="M0 165.83 C0 165.68 3.89 165.17 6.95 165.01 C9.33 164.9 11.2 165 13.24 165.11 L13.6 165.12" class="st7"/>
			</g>
			<g id="shape1118-140" v:mID="1118" v:groupContext="shape" v:layerMember="0" transform="translate(8.50394,-7.08657)">
				<title>动态连接线.1046</title>
				<path d="M0 165.54 L21.83 165.54" class="st9"/>
			</g>
		</g>
		<g id="shape1120-146" v:mID="1120" v:groupContext="shape" transform="translate(4.20177,-0.375)">
			<title>工作表.1120</title>
			<desc>抽象语法树节点在前序遍历中的路径</desc>
			<v:textBlock v:margins="rect(4,4,4,4)" v:tabSpace="42.5197"/>
			<v:textRect cx="130.819" cy="158.456" width="261.64" height="28.3465"/>
			<rect x="0" y="144.283" width="261.638" height="28.3465" class="st10"/>
			<text x="33.64" y="163.06" class="st11" v:langID="2052"><v:paragraph v:horizAlign="2"/><v:tabList/>抽象语法树节点在前序遍历中的路径</text>		</g>
	</g>
</svg>
